<svg width="33" height="24" viewBox="0 0 33 24" fill="none" xmlns="http://www.w3.org/2000/svg">
<rect width="33" height="24" fill="white"/>
<path fill-rule="evenodd" clip-rule="evenodd" d="M7 4V19H27V4H7Z" fill="#F7FCFF"/>
<mask id="mask0_1660_623" style="mask-type:luminance" maskUnits="userSpaceOnUse" x="7" y="4" width="20" height="15">
<path fill-rule="evenodd" clip-rule="evenodd" d="M7 4V19H27V4H7Z" fill="white"/>
</mask>
<g mask="url(#mask0_1660_623)">
<path fill-rule="evenodd" clip-rule="evenodd" d="M17 15.3872C19.0017 15.3872 20.6244 13.6639 20.6244 11.5381C20.6244 9.41232 19.0017 7.68903 17 7.68903C14.9983 7.68903 13.3756 9.41232 13.3756 11.5381C13.3756 13.6639 14.9983 15.3872 17 15.3872Z" fill="#3D58DB"/>
<mask id="mask1_1660_623" style="mask-type:luminance" maskUnits="userSpaceOnUse" x="13" y="7" width="8" height="9">
<path fill-rule="evenodd" clip-rule="evenodd" d="M17 15.3872C19.0017 15.3872 20.6244 13.6639 20.6244 11.5381C20.6244 9.41232 19.0017 7.68903 17 7.68903C14.9983 7.68903 13.3756 9.41232 13.3756 11.5381C13.3756 13.6639 14.9983 15.3872 17 15.3872Z" fill="white"/>
</mask>
<g mask="url(#mask1_1660_623)">
<path fill-rule="evenodd" clip-rule="evenodd" d="M20.7512 11.833C20.7512 11.833 20.5478 10.018 19.0411 9.91947C17.5344 9.82094 17.1282 11.2505 17.0412 11.6292C16.9543 12.0079 16.7342 13.0182 15.1479 13.0182C13.5616 13.0182 13.4185 10.4492 13.4185 10.4492V7.41994H20.7512V11.833Z" fill="#E31D1C"/>
</g>
<path fill-rule="evenodd" clip-rule="evenodd" d="M11.5621 5.28261L12.134 5.79981L9.48384 8.89475L8.91199 8.37755L11.5621 5.28261ZM12.5053 6.11958L13.0771 6.63679L10.522 9.68689L9.9501 9.16969L12.5053 6.11958ZM14.0159 7.48407L13.4441 6.96687L10.8818 10.0401L11.4537 10.5573L14.0159 7.48407Z" fill="#272727"/>
<path fill-rule="evenodd" clip-rule="evenodd" d="M22.8524 5.06574L22.2804 5.58101L23.2726 6.74528L23.8445 6.23001L22.8524 5.06574ZM24.6159 7.20739L24.0439 7.72266L25.0361 8.88693L25.608 8.37166L24.6159 7.20739ZM20.3925 7.258L20.9645 6.74273L21.9567 7.90701L21.3847 8.42227L20.3925 7.258ZM22.728 8.88438L22.1561 9.39965L23.1482 10.5639L23.7202 10.0487L22.728 8.88438ZM21.3723 6.3945L21.9443 5.87923L24.7059 9.24227L24.1339 9.75754L21.3723 6.3945Z" fill="#272727"/>
<path fill-rule="evenodd" clip-rule="evenodd" d="M23.2844 12.9019L22.7076 12.3847L21.7071 13.5535L22.2839 14.0708L23.2844 12.9019ZM21.6023 14.9588L21.0255 14.4416L20.025 15.6104L20.6018 16.1276L21.6023 14.9588ZM24.5291 14.0205L25.1059 14.5378L24.1054 15.7066L23.5286 15.1893L24.5291 14.0205ZM23.5061 16.6424L22.9293 16.1251L21.9288 17.2939L22.5056 17.8112L23.5061 16.6424ZM21.9791 15.2363L22.5559 15.7536L21.5116 17.0016L20.9348 16.4844L21.9791 15.2363ZM24.2693 13.6739L23.6925 13.1566L22.6482 14.4047L23.225 14.922L24.2693 13.6739Z" fill="#272727"/>
<path fill-rule="evenodd" clip-rule="evenodd" d="M11.0042 13.3062L11.5762 12.7903L14.129 15.7156L13.557 16.2314L11.0042 13.3062ZM11.5997 15.8647L12.1717 15.3489L13.25 16.5336L12.678 17.0494L11.5997 15.8647ZM9.69344 14.4317L9.12144 14.9476L11.6876 17.9122L12.2596 17.3964L9.69344 14.4317ZM10.1004 14.0951L10.6724 13.5793L11.6072 14.6755L11.0352 15.1913L10.1004 14.0951Z" fill="#272727"/>
</g>
</svg>
