<?xml version="1.0" standalone="no"?>
<!DOCTYPE svg PUBLIC "-//W3C//DTD SVG 20010904//EN"
 "http://www.w3.org/TR/2001/REC-SVG-20010904/DTD/svg10.dtd">
<svg version="1.0" xmlns="http://www.w3.org/2000/svg"
 width="1024.000000pt" height="1024.000000pt" viewBox="0 0 1024.000000 1024.000000"
 preserveAspectRatio="xMidYMid meet">

<g transform="translate(0.000000,1024.000000) scale(0.100000,-0.100000)"
fill="#000000" stroke="none">
<path d="M2935 8560 c-42 -46 -67 -306 -46 -477 22 -180 92 -361 187 -484 24
-32 44 -60 44 -64 0 -4 -15 -25 -33 -48 -134 -168 -260 -486 -320 -812 -18
-100 -22 -156 -21 -335 0 -247 20 -397 80 -581 19 -58 34 -108 34 -111 0 -2
-24 -21 -52 -41 -145 -99 -311 -324 -402 -544 -97 -233 -146 -588 -125 -911
31 -501 237 -1030 478 -1229 76 -62 128 -82 166 -65 30 14 76 108 108 224 12
43 24 78 27 78 3 0 19 -26 37 -58 96 -175 330 -430 538 -587 141 -106 376
-238 510 -286 46 -16 48 -18 25 -25 -53 -16 -217 -104 -258 -140 -67 -57 -102
-126 -102 -200 0 -73 23 -110 74 -120 45 -8 86 14 166 91 62 60 134 115 150
115 4 0 -8 -29 -27 -65 -27 -51 -35 -78 -35 -120 -1 -97 47 -146 127 -131 53
10 90 51 159 173 31 56 61 105 66 108 5 3 11 -9 14 -27 28 -171 33 -185 76
-221 22 -19 43 -27 69 -27 78 0 120 67 121 191 0 92 -19 161 -65 229 l-35 52
48 -7 c178 -24 581 -27 762 -6 41 5 76 8 78 6 2 -2 -10 -22 -27 -45 -44 -60
-65 -133 -65 -220 0 -92 16 -141 55 -175 69 -57 164 -14 194 87 8 28 18 80 21
116 8 76 8 76 81 -57 58 -107 114 -168 159 -177 117 -22 163 110 89 252 -19
37 -35 68 -35 70 0 12 83 -51 159 -121 101 -93 137 -108 189 -81 76 39 65 176
-24 275 -52 58 -138 113 -236 151 l-69 27 63 23 c196 70 443 218 608 362 152
134 318 334 416 503 27 46 51 84 54 85 3 0 10 -26 17 -58 13 -69 76 -221 104
-251 42 -45 115 -14 223 95 151 152 267 393 355 734 74 289 100 646 66 902
-39 293 -139 557 -292 770 -61 85 -206 231 -249 250 -16 8 -24 17 -20 27 2 9
19 55 36 103 50 141 74 325 73 573 0 278 -23 434 -103 675 -42 128 -155 358
-223 452 l-56 77 29 31 c84 90 154 237 193 404 17 76 21 125 21 296 1 226 -8
279 -50 307 -38 24 -70 10 -279 -127 -195 -128 -299 -187 -415 -239 -94 -42
-237 -91 -265 -91 -12 0 -53 14 -91 31 -156 71 -407 150 -583 183 -280 53
-672 64 -963 26 -242 -31 -487 -99 -703 -195 -55 -25 -108 -45 -117 -45 -31 0
-211 70 -333 129 -66 32 -199 111 -295 176 -241 163 -297 187 -335 145z m1282
-1125 c356 -75 623 -336 709 -691 23 -94 23 -295 0 -389 -25 -105 -62 -199
-105 -274 -259 -442 -839 -578 -1257 -294 -178 121 -315 310 -374 513 -31 107
-38 307 -15 421 36 181 118 333 250 464 122 123 288 215 449 250 82 18 259 18
343 0z m2151 -1 c357 -73 648 -365 712 -715 17 -91 15 -260 -5 -354 -56 -269
-244 -513 -490 -637 -113 -57 -210 -80 -360 -85 -119 -4 -153 -2 -229 16 -328
78 -568 316 -673 666 -26 87 -26 352 1 450 89 329 358 586 686 656 107 22 258
24 358 3z m-1308 -1157 c0 -2 -12 -14 -27 -28 l-28 -24 24 28 c23 25 31 32 31
24z"/>
<path d="M3956 6939 c-64 -16 -155 -70 -197 -117 -83 -95 -122 -229 -101 -345
26 -139 104 -241 230 -300 61 -29 75 -32 168 -32 96 0 103 2 176 38 123 60
194 158 219 301 30 176 -77 375 -236 436 -67 26 -195 35 -259 19z m277 -210
c37 -28 52 -88 33 -132 -39 -95 -156 -105 -201 -17 -28 55 -14 119 35 157 25
20 104 16 133 -8z"/>
<path d="M6068 6931 c-75 -24 -116 -51 -170 -109 -94 -100 -126 -217 -97 -354
28 -132 100 -228 214 -284 184 -91 407 -33 513 134 74 115 83 282 23 404 -41
82 -118 159 -198 196 -77 35 -201 41 -285 13z m102 -210 c37 -36 46 -72 31
-122 -24 -79 -113 -103 -175 -48 -84 74 -40 199 71 199 36 0 50 -6 73 -29z"/>
</g>
</svg>
